<?xml version="1.0" encoding="UTF-8"?> <svg xmlns="http://www.w3.org/2000/svg" viewBox="0 0 280 86" xml:space="preserve"><path fill="#FFC107" d="M18.066 76.844a.416.416 0 0 0 0-.065 2.271 2.271 0 1 1 4.541.039 2.273 2.273 0 0 1-2.26 2.284 1.94 1.94 0 0 1-.395-.03 2.277 2.277 0 0 1-1.885-2.228m.543-7.781.007-.065a2.271 2.271 0 1 1 4.493.662c0 .026 0 .04-.008.065a2.271 2.271 0 0 1-2.58 1.914h-.05a2.273 2.273 0 0 1-1.865-2.57m3.236-4.775a2.266 2.266 0 0 1-1.46-2.856c.01-.024.014-.046.02-.064a2.273 2.273 0 0 1 4.324 1.402.204.204 0 0 0-.024.06 2.27 2.27 0 0 1-2.858 1.458m2.545-7.016a2.274 2.274 0 0 1-.87-3.09c.014-.02.022-.041.037-.061a2.273 2.273 0 1 1 3.932 2.277 2.277 2.277 0 0 1-2.362 1.134 2.23 2.23 0 0 1-.725-.26m3.924-6.356a2.282 2.282 0 0 1-.08-3.218.32.32 0 0 0 .052-.044 2.27 2.27 0 1 1 3.278 3.14.332.332 0 0 0-.04.048 2.274 2.274 0 0 1-2.03.668 2.237 2.237 0 0 1-1.185-.594M54.518 38.43a2.274 2.274 0 0 1-.1-3.21.486.486 0 0 0 .042-.047 2.272 2.272 0 1 1 3.316 3.104c-.013.02-.029.034-.042.053a2.295 2.295 0 0 1-2.044.688 2.358 2.358 0 0 1-1.174-.58m4.807-5.714a2.267 2.267 0 0 1-.894-3.079l.002-.004a2.27 2.27 0 1 1 4.007 2.134.335.335 0 0 1-.034.055 2.273 2.273 0 0 1-2.364 1.144 2.198 2.198 0 0 1-.716-.253m3.334-6.675a2.276 2.276 0 0 1-1.46-2.912v-.007a2.275 2.275 0 0 1 4.336 1.378.463.463 0 0 0-.025.061 2.273 2.273 0 0 1-2.54 1.554c-.102-.016-.207-.048-.31-.074m.095-9.757c0-.018 0-.045.009-.066a2.271 2.271 0 0 1 4.493.642c0 .025 0 .045-.009.068a2.274 2.274 0 0 1-2.57 1.93c-.019 0-.042 0-.06-.012a2.27 2.27 0 0 1-1.866-2.562m.467-7.094a2.274 2.274 0 0 1 2.292 2.248 2.264 2.264 0 0 1-2.289-2.248M54.302 53.41l-.07-.012a2.271 2.271 0 1 1 1.077-4.413l.06.009a2.27 2.27 0 1 1-1.067 4.41m5.6-1.395a2.263 2.263 0 0 1 2.302-2.29 2.27 2.27 0 1 1 .06 4.54h-.067a1.893 1.893 0 0 1-.435-.044 2.258 2.258 0 0 1-1.867-2.209M.328 40.963a2.283 2.283 0 0 1 .84-3.1l.063-.03a2.273 2.273 0 0 1 2.255 3.947c-.02.01-.034.02-.052.027A2.274 2.274 0 0 1 .33 40.97m67.026 10.659a2.273 2.273 0 0 1 1.758-2.688.216.216 0 0 0 .058-.014 2.272 2.272 0 1 1 .938 4.446c-.02.013-.044.01-.064.02a2.287 2.287 0 0 1-2.69-1.763m7.247-1.777a2.263 2.263 0 0 1 1.29-2.938 2.269 2.269 0 1 1 1.712 4.2c-.019.01-.042.014-.056.024a2.264 2.264 0 0 1-2.946-1.284M6.91 37.448a2.274 2.274 0 0 1 1.297-2.94.23.23 0 0 0 .065-.024 2.27 2.27 0 1 1 1.633 4.237l-.057.025c-.387.149-.808.188-1.216.113a2.277 2.277 0 0 1-1.72-1.41m7.034-2.487a2.27 2.27 0 0 1 1.767-2.68.24.24 0 0 0 .068-.017 2.272 2.272 0 0 1 .903 4.453 2.186 2.186 0 0 1-.91.025 2.263 2.263 0 0 1-1.828-1.78m67.512 11.952a2.273 2.273 0 0 1 .83-3.105v-.001c.018 0 .038-.023.054-.023a2.27 2.27 0 1 1 2.28 3.927.63.63 0 0 0-.06.031 2.267 2.267 0 0 1-3.105-.829M21.3 33.725c-.01-1.256 1-2.281 2.255-2.29h.074a2.27 2.27 0 0 1 .018 4.54h-.06a2.744 2.744 0 0 1-.414-.039A2.271 2.271 0 0 1 21.3 33.72m9.168 3.044a2.272 2.272 0 1 1 1.052-4.42c.024.004.047.01.069.019a2.273 2.273 0 0 1-.957 4.441c-.055-.013-.107-.03-.165-.04M59.634 81.342a.698.698 0 0 0-.058-.04 2.271 2.271 0 0 1 2.26-3.94l.054.033a2.273 2.273 0 0 1-2.254 3.947m-6.467-4.38c-.018-.012-.036-.03-.056-.043a2.273 2.273 0 0 1 2.886-3.512 2.27 2.27 0 0 1-1.812 4.01 2.244 2.244 0 0 1-1.018-.454m-5.714-5.356a2.272 2.272 0 1 1 3.335-3.085l.041.047a2.273 2.273 0 1 1-3.376 3.044m-4.708-6.335a.521.521 0 0 1-.032-.065 2.269 2.269 0 1 1 3.901-2.32c.013.018.019.032.033.05a2.273 2.273 0 0 1-3.902 2.33m-3.253-7.314a.193.193 0 0 0-.023-.07 2.273 2.273 0 1 1 4.38-1.223 2.27 2.27 0 0 1-1.532 2.82v.001a2.32 2.32 0 0 1-1.043.064 2.279 2.279 0 0 1-1.782-1.595m2.465-28.951c0-.022-.008-.038-.013-.063a2.27 2.27 0 1 1 4.367-1.243c0 .021.01.042.018.066a2.267 2.267 0 0 1-1.569 2.813 2.19 2.19 0 0 1-1.015.055 2.282 2.282 0 0 1-1.79-1.618m-2.742-6.308a2.273 2.273 0 0 1 3.885-2.358c.014.018.025.038.034.06a2.276 2.276 0 0 1-2.354 3.388 2.3 2.3 0 0 1-1.57-1.09m-4.13-5.654c-.018-.017-.027-.033-.041-.047a2.271 2.271 0 1 1 3.393-3.02l.043.054a2.27 2.27 0 0 1-2.093 3.742 2.32 2.32 0 0 1-1.304-.724m-5.13-4.872a2.273 2.273 0 1 1 2.848-3.54 2.276 2.276 0 0 1-1.825 4.008 2.296 2.296 0 0 1-1.022-.468m-5.86-4.03a.212.212 0 0 1-.055-.03 2.273 2.273 0 0 1 2.278-3.93.2.2 0 0 1 .054.036 2.273 2.273 0 0 1-1.53 4.204 2.383 2.383 0 0 1-.747-.28"></path><path fill="#00C3C3" d="M51.68 44.281a8.684 8.684 0 1 1-17.079-3.16 8.684 8.684 0 0 1 17.079 3.157v.003M3.665 58.903a2.273 2.273 0 0 1 2.64-1.83l.059.008a2.273 2.273 0 1 1-.871 4.46 2.267 2.267 0 0 1-1.824-2.635m14.845 1.083a2.271 2.271 0 0 1 1.992-2.579 2.273 2.273 0 0 1 .642 4.494.25.25 0 0 0-.068.01c-.245.03-.494.024-.737-.02a2.269 2.269 0 0 1-1.83-1.911m7.347-1.305a2.269 2.269 0 0 1 1.393-2.89c.002 0 .004 0 .006-.002a.277.277 0 0 1 .055-.023 2.27 2.27 0 0 1 1.499 4.287 2.24 2.24 0 0 1-1.223.109 2.274 2.274 0 0 1-1.74-1.48m6.937-2.768a2.271 2.271 0 0 1 .676-3.182A2.271 2.271 0 0 1 36 56.5a2.27 2.27 0 0 1-1.738.381 2.242 2.242 0 0 1-1.476-.969M49.599 32.25a2.273 2.273 0 0 1 .653-3.147l.059-.04a2.274 2.274 0 0 1 2.484 3.809.145.145 0 0 0-.047.027 2.273 2.273 0 0 1-3.15-.65m6.455-3.748a2.269 2.269 0 0 1 1.404-2.883.203.203 0 0 1 .064-.022 2.271 2.271 0 1 1 1.418 4.317 2.271 2.271 0 0 1-2.886-1.41m7.15-2.128a2.271 2.271 0 0 1 1.941-2.56h.002c.02 0 .043 0 .07-.01a2.272 2.272 0 0 1 .61 4.502.26.26 0 0 1-.067 0c-.24.038-.486.033-.725-.014a2.27 2.27 0 0 1-1.832-1.925m14.876-.302a2.269 2.269 0 0 1 2.71-1.805 2.27 2.27 0 1 1-.886 4.452 2.269 2.269 0 0 1-1.82-2.642v-.002M37.201 84.971a2.274 2.274 0 0 1-.223-3.248 2.273 2.273 0 1 1 3.47 2.937.145.145 0 0 0-.042.05 2.282 2.282 0 0 1-2.154.763 2.332 2.332 0 0 1-1.052-.5m8.362-12.31a2.273 2.273 0 0 1-1.254-2.96c0-.02.015-.036.02-.055a2.272 2.272 0 1 1 4.216 1.698c-.009.016-.013.043-.025.062A2.276 2.276 0 0 1 46 72.794a3.333 3.333 0 0 1-.435-.126m2.545-7.019a2.274 2.274 0 0 1-1.797-2.72 2.27 2.27 0 0 1 4.461.84c0 .026 0 .044-.01.073a2.274 2.274 0 0 1-2.644 1.806h-.01v.001zm-1.34-9.51v-.061a2.271 2.271 0 0 1 4.538-.232 2.274 2.274 0 0 1-2.12 2.416c-.19.01-.38-.004-.566-.039a2.264 2.264 0 0 1-1.848-2.083m-12.07-26.418a.56.56 0 0 0 0-.07 2.271 2.271 0 0 1 4.535-.256v.064a2.267 2.267 0 0 1-2.145 2.396 2.264 2.264 0 0 1-2.398-2.134m2.377-5.33a2.269 2.269 0 0 1-1.795-2.659v-.002a2.27 2.27 0 1 1 4.47.8c.001.019-.009.042-.012.062a2.28 2.28 0 0 1-2.644 1.804c-.011 0-.016-.009-.02-.01m1.738-7.254a2.269 2.269 0 0 1-1.24-2.958 2.273 2.273 0 1 1 4.204 1.718 2.267 2.267 0 0 1-2.967 1.239M45.99 4.103A2.276 2.276 0 0 1 45.78.846a2.271 2.271 0 0 1 3.45 2.951c-.017.018-.023.034-.04.051a2.282 2.282 0 0 1-2.144.758 2.32 2.32 0 0 1-1.06-.506M73.664 67.59a.203.203 0 0 1-.017-.058 2.27 2.27 0 1 1 4.27-1.536 2.276 2.276 0 0 1-2.53 3.06 2.261 2.261 0 0 1-1.723-1.466m-6.766-12.42c-.012-.016-.026-.031-.038-.05a2.27 2.27 0 1 1 3.618-2.747 2.272 2.272 0 1 1-3.58 2.797m-4.814-5.087a.262.262 0 0 1-.048-.043 2.27 2.27 0 1 1 2.957-3.442c.02.014.03.027.055.042a2.276 2.276 0 0 1-1.901 3.957 2.31 2.31 0 0 1-1.061-.516M27.46 43.497a.174.174 0 0 0-.065-.032 2.274 2.274 0 1 1 2.051-4.058c.016.01.037.016.052.027a2.267 2.267 0 0 1-1.433 4.256 2.016 2.016 0 0 1-.605-.196m28.92 2.755a2.27 2.27 0 1 1 1.945-4.098 2.27 2.27 0 1 1-1.945 4.1m-35.547-7.247c-.017-.013-.033-.03-.054-.044a2.272 2.272 0 1 1 2.988-3.424c.016.015.035.027.05.041a2.272 2.272 0 1 1-2.984 3.428m-5.404-5.769a.29.29 0 0 1-.037-.05 2.273 2.273 0 1 1 3.63-2.733 2.271 2.271 0 0 1-2.211 3.624 2.244 2.244 0 0 1-1.382-.841M8.018 19.528c0-.016-.016-.04-.02-.063A2.271 2.271 0 1 1 12.3 18.01a2.277 2.277 0 0 1-1.379 2.9 2.283 2.283 0 0 1-2.899-1.388"></path><path fill="#795548" d="M23.361 80.57a2.276 2.276 0 0 1 .823-3.106c.02-.013.037-.02.054-.034v.007a2.27 2.27 0 1 1 2.228 3.954 2.274 2.274 0 0 1-3.103-.822m6.346-3.924a2.274 2.274 0 0 1 .347-3.197c.016-.01.035-.032.05-.042a2.271 2.271 0 1 1 2.795 3.581 2.28 2.28 0 0 1-3.19-.343m5.674-4.856a2.274 2.274 0 0 1-.191-3.21c.016-.014.03-.031.045-.046a2.27 2.27 0 1 1 3.389 3.012 2.267 2.267 0 0 1-2.155.774 2.23 2.23 0 0 1-1.092-.53m4.764-5.752a2.269 2.269 0 0 1-.809-3.11c.01-.014.02-.034.03-.048a2.27 2.27 0 0 1 3.92 2.288.29.29 0 0 1-.036.06 2.263 2.263 0 0 1-3.105.81m3.5-6.597a2.27 2.27 0 0 1-1.558-2.807v-.002c0-.019.01-.035.012-.054a2.271 2.271 0 1 1 4.372 1.234.191.191 0 0 1-.02.07 2.264 2.264 0 0 1-2.8 1.565M41.16 30.511a2.274 2.274 0 0 1-1.545-2.82.32.32 0 0 1 .024-.068 2.27 2.27 0 1 1 4.35 1.286c0 .022-.014.042-.017.06a2.264 2.264 0 0 1-2.815 1.54m2.49-7.033a2.274 2.274 0 0 1-.794-3.112.165.165 0 0 0 .036-.06 2.272 2.272 0 0 1 3.901 2.329c-.012.011-.02.033-.03.046a2.276 2.276 0 0 1-2.369 1.081 2.487 2.487 0 0 1-.745-.29m4.076-6.253a2.267 2.267 0 0 1-.18-3.2l.006-.008c.016-.013.028-.03.047-.046a2.272 2.272 0 0 1 3.374 3.044c-.012.014-.026.027-.04.046a2.269 2.269 0 0 1-3.204.172l-.004-.004m5.17-5.373a2.277 2.277 0 0 1 .413-3.231 2.272 2.272 0 1 1 2.825 3.559.365.365 0 0 0-.047.033 2.267 2.267 0 0 1-3.19-.354m5.977-4.479a2.27 2.27 0 0 1 .835-3.097l.065-.038a2.27 2.27 0 0 1 2.254 3.941l-.056.036a2.27 2.27 0 0 1-3.098-.842M63.552 76.46a2.27 2.27 0 1 1 4.54-.072v.066a2.274 2.274 0 0 1-2.268 2.279 3.286 3.286 0 0 1-.42-.04 2.274 2.274 0 0 1-1.852-2.233m-.547-7.088v-.064a2.273 2.273 0 0 1 4.493-.695c0 .02.007.042.012.063a2.274 2.274 0 0 1-4.494.697m-1.648-6.878a.235.235 0 0 0-.017-.062 2.271 2.271 0 0 1 4.31-1.434c0 .023.015.043.02.062a2.273 2.273 0 1 1-4.313 1.434m-2.832-6.41c-.01-.017-.018-.04-.028-.056a2.27 2.27 0 1 1 3.941-2.257 2.266 2.266 0 0 1-.818 3.16 2.22 2.22 0 0 1-1.53.256 2.271 2.271 0 0 1-1.565-1.109m-4.075-5.53-.045-.042a2.271 2.271 0 0 1 3.256-3.167c.016.02.035.038.056.054a2.271 2.271 0 1 1-3.267 3.155M28.165 38.23a.335.335 0 0 1-.046-.054 2.273 2.273 0 0 1 3.294-3.131l.038.043a2.27 2.27 0 1 1-3.285 3.134m-4.725-6.466a.219.219 0 0 0-.038-.064 2.273 2.273 0 1 1 3.97-2.215c.008.019.018.035.027.052a2.271 2.271 0 0 1-3.96 2.227m-3.15-7.248a2.271 2.271 0 0 1 4.296-1.471c.007.018.014.039.023.058a2.274 2.274 0 1 1-4.322 1.411m-1.79-7.615c-.008-.027 0-.047-.012-.07a2.271 2.271 0 0 1 4.493-.667.157.157 0 0 1 .013.058 2.277 2.277 0 0 1-1.909 2.589c-.25.035-.504.03-.752-.017a2.263 2.263 0 0 1-1.832-1.893m-.565-7.782a.345.345 0 0 1 0-.066 2.271 2.271 0 1 1 4.541.077 2.269 2.269 0 0 1-2.689 2.228 2.27 2.27 0 0 1-1.852-2.239M15.75 53.372c-.024 0-.044-.012-.069-.015a2.271 2.271 0 0 1 1.005-4.43 2.271 2.271 0 0 1-.936 4.446m5.534-1.416a2.277 2.277 0 0 1 2.364-2.24 2.273 2.273 0 1 1-.058 4.545 2.344 2.344 0 0 1-.452-.035 2.277 2.277 0 0 1-1.854-2.27m-13.039-.845a2.27 2.27 0 1 1 1.602-4.247c.023 0 .038.016.06.021a2.271 2.271 0 0 1-1.243 4.349 1.974 1.974 0 0 1-.419-.123m20.503.633a2.269 2.269 0 0 1 1.675-2.736h.002a.598.598 0 0 0 1.061 4.42c-.312.068-.634.076-.948.02a2.27 2.27 0 0 1-1.79-1.704M1.224 47.717a.238.238 0 0 0-.057-.035 2.273 2.273 0 1 1 2.341-3.895 2.273 2.273 0 0 1-2.284 3.93m51.34-12.55a2.27 2.27 0 0 1 1.646-2.754 2.27 2.27 0 1 1 1.17 4.385.106.106 0 0 1-.054.015 2.279 2.279 0 0 1-2.763-1.645m29.802 6.719c-.02-.015-.038-.023-.054-.035a2.273 2.273 0 0 1 2.261-3.943.58.58 0 0 0 .057.035 2.273 2.273 0 0 1-2.266 3.941m-6.414-3.083a.21.21 0 0 0-.057-.017 2.273 2.273 0 0 1 1.64-4.24.29.29 0 0 1 .062.029 2.27 2.27 0 0 1-1.232 4.349 2.002 2.002 0 0 1-.413-.12m-16.062-5.055a2.274 2.274 0 0 1 2.35-2.262 2.27 2.27 0 0 1-.031 4.539h-.062a2.267 2.267 0 0 1-2.257-2.277m9.277 3.044a.19.19 0 0 0-.058-.013 2.271 2.271 0 1 1 .911-4.45l.066.014a2.27 2.27 0 1 1-.87 4.456h-.046"></path><path fill="#673AB7" d="M45.509 84.72c-.018-.012-.03-.034-.048-.047a2.273 2.273 0 0 1 3.479-2.924.21.21 0 0 0 .037.05 2.273 2.273 0 0 1-2.106 3.703 2.212 2.212 0 0 1-1.365-.784m-4.565-6.326a.265.265 0 0 0-.038-.05 2.274 2.274 0 0 1 3.885-2.366c.01.02.026.039.032.055a2.27 2.27 0 0 1-3.879 2.361m-3.518-6.993-.022-.063a2.27 2.27 0 1 1 4.239-1.625 2.271 2.271 0 1 1-4.218 1.688m-2.227-7.578c0-.019 0-.045-.01-.065a2.272 2.272 0 1 1 4.478-.77 2.276 2.276 0 0 1-1.815 2.654 2.276 2.276 0 0 1-2.653-1.82m-.514-7.993a.29.29 0 0 1 0-.071 2.271 2.271 0 1 1 4.53.317.145.145 0 0 0 0 .056 2.277 2.277 0 0 1-2.42 2.113c-.074 0-.145-.016-.219-.025a2.27 2.27 0 0 1-1.896-2.391m12.15-26.359v-.064a2.273 2.273 0 1 1 4.539.264c0 .028 0 .05-.01.073a2.266 2.266 0 0 1-2.402 2.128 1.847 1.847 0 0 1-.234-.024 2.273 2.273 0 0 1-1.893-2.377m-.485-6.862c0-.017-.009-.04-.013-.06a2.271 2.271 0 1 1 4.458-.87c0 .024.012.042.016.068a2.272 2.272 0 0 1-4.461.856m-2.01-6.711c-.008-.017-.017-.04-.025-.055a2.271 2.271 0 1 1 4.203-1.714c.01.018.019.04.03.061a2.27 2.27 0 0 1-1.253 2.956l-.003.001a2.271 2.271 0 0 1-2.954-1.25m-3.205-6.302a2.274 2.274 0 1 1 3.835-2.441 2.271 2.271 0 1 1-3.835 2.437m-4.18-5.755a2.27 2.27 0 1 1 3.42-2.98c.016.015.03.033.042.046a2.27 2.27 0 1 1-3.461 2.939M9.289 68.995a2.273 2.273 0 0 1-1.362-2.912v-.002c.01-.019.014-.04.023-.062a2.271 2.271 0 0 1 4.27 1.55c-.01.024-.013.043-.023.06a2.264 2.264 0 0 1-2.504 1.466 1.999 1.999 0 0 1-.404-.099m2.754-6.946a2.269 2.269 0 0 1-.907-3.08.389.389 0 0 0 .027-.066 2.275 2.275 0 1 1 3.992 2.185.382.382 0 0 1-.036.054 2.25 2.25 0 0 1-3.076.907m3.769-6.437a2.27 2.27 0 0 1-.383-3.188l.002-.001c.014-.024.029-.041.042-.06a2.273 2.273 0 0 1 3.566 2.82l-.038.041a2.261 2.261 0 0 1-3.19.382m4.822-5.698a2.277 2.277 0 1 1 3.499-2.912c.76.941.65 2.313-.249 3.122a.236.236 0 0 0-.05.035c-.953.809-2.381.699-3.2-.247m5.877-4.61a2.276 2.276 0 0 1 1.042-3.043l.064-.032a2.27 2.27 0 0 1 1.985 4.083.252.252 0 0 0-.05.03 2.283 2.283 0 0 1-3.044-1.043m28.915-2.634a2.267 2.267 0 0 1 1.011-3.042l.004-.002a.579.579 0 0 0 .05-.028 2.274 2.274 0 0 1 2.04 4.06c-.023.008-.045.02-.067.027a2.241 2.241 0 0 1-1.377.21 2.27 2.27 0 0 1-1.665-1.23m6.48-3.684a2.273 2.273 0 0 1 .233-3.206 2.27 2.27 0 1 1 3.022 3.39h.001c-.017.019-.035.029-.053.05a2.284 2.284 0 0 1-3.204-.234m5.436-5.113a2.273 2.273 0 0 1-.352-3.242 2.276 2.276 0 1 1 3.592 2.796.452.452 0 0 0-.045.052 2.255 2.255 0 0 1-2.159.845 2.31 2.31 0 0 1-1.029-.45m4.385-6.042a2.277 2.277 0 0 1-.887-3.134 2.273 2.273 0 1 1 4.002 2.154.265.265 0 0 0-.033.065 2.282 2.282 0 0 1-3.085.916m3.351-6.668A2.273 2.273 0 0 1 73.7 18.25a.145.145 0 0 0 .02-.06 2.273 2.273 0 1 1 4.28 1.529c-.008.026-.02.042-.025.063a2.26 2.26 0 0 1-2.5 1.473 2.03 2.03 0 0 1-.402-.1M63.077 59.281a2.28 2.28 0 0 1 2.558-1.95h.058a2.277 2.277 0 1 1-.608 4.512l-.071-.012a2.274 2.274 0 0 1-1.944-2.556m-5.677.775c-.02 0-.04-.01-.062-.013a2.273 2.273 0 1 1 1.473-4.301 2.273 2.273 0 0 1-1.03 4.412 1.652 1.652 0 0 1-.38-.098m13.108-.028a2.271 2.271 0 0 1 2.26-2.34 2.27 2.27 0 1 1 .146 4.538h-.063a1.992 1.992 0 0 1-.434-.03 2.266 2.266 0 0 1-1.91-2.175m-20.318-3.42a2.27 2.27 0 1 1 2.435-3.833.42.42 0 0 1 .05.028 2.27 2.27 0 0 1-2.473 3.807m27.77 2.973a2.27 2.27 0 0 1 1.82-2.645c.026 0 .043-.01.062-.014a2.271 2.271 0 1 1 .835 4.465c-.025 0-.042.013-.068.014a2.269 2.269 0 0 1-2.647-1.82m-44.65-26.628a.203.203 0 0 1-.05-.038 2.27 2.27 0 1 1 2.521-3.769.633.633 0 0 0 .057.038 2.271 2.271 0 0 1-2.528 3.769M3.502 26.8a2.269 2.269 0 0 1 1.83-2.645l.066-.016a2.271 2.271 0 0 1 .81 4.469 2.364 2.364 0 0 1-.83.025c-.95-.155-1.7-.89-1.874-1.837m7.382-1.124a2.263 2.263 0 0 1 2.273-2.33 2.271 2.271 0 1 1 .058 4.54 1.77 1.77 0 0 1-.424-.02 2.276 2.276 0 0 1-1.907-2.184m16.261 4.234a.104.104 0 0 0-.053-.023 2.273 2.273 0 0 1 1.497-4.285 2.273 2.273 0 0 1-1.05 4.407 2.54 2.54 0 0 1-.397-.099m-8.798-4.203a2.27 2.27 0 0 1 2.559-1.939h.002l.071.01a2.274 2.274 0 0 1-.638 4.501l-.062-.007h-.048a2.274 2.274 0 0 1-1.884-2.56"></path><path fill="#E91E63" d="M51.782 84.455a2.276 2.276 0 0 1-1.332-2.922.228.228 0 0 0 .019-.064 2.273 2.273 0 0 1 4.257 1.586c0 .022-.016.045-.02.067a2.271 2.271 0 0 1-2.927 1.335m1.522-16.773a2.27 2.27 0 1 1 4.536.11 2.279 2.279 0 0 1-2.361 2.248c-.108-.01-.218-.018-.33-.041a2.271 2.271 0 0 1-1.849-2.32m-.391-6.994c0-.024 0-.043-.01-.062a2.27 2.27 0 0 1 4.481-.725c0 .022 0 .045.012.068a2.271 2.271 0 0 1-1.884 2.602 2.274 2.274 0 0 1-2.596-1.883m-1.885-6.614a2.27 2.27 0 1 1 4.136-1.876.29.29 0 0 0 .027.067 2.266 2.266 0 0 1-1.17 2.983l-.007.003a2.21 2.21 0 0 1-1.319.145 2.253 2.253 0 0 1-1.667-1.328M30.731 33.298a2.271 2.271 0 1 1-.001.003m-2.152-7.72a2.273 2.273 0 1 1 4.49-.689 2.264 2.264 0 0 1-1.9 2.588c-.251.04-.508.038-.76-.009a2.273 2.273 0 0 1-1.827-1.891m-.409-7.882v-.063a2.271 2.271 0 1 1 4.537.207v.055a2.271 2.271 0 0 1-2.364 2.174h-.001c-.108 0-.215-.013-.32-.039a2.271 2.271 0 0 1-1.852-2.328m4.52-12.32a2.276 2.276 0 0 1-1.325-2.929c.01-.025.014-.043.026-.065a2.276 2.276 0 0 1 4.26 1.604.281.281 0 0 1-.027.056 2.264 2.264 0 0 1-2.923 1.327M26.539 46.176a2.273 2.273 0 0 1 2.53-1.982h.002l.06.01a2.271 2.271 0 1 1-.547 4.509l-.07-.009a2.267 2.267 0 0 1-1.976-2.528m-5.708.542a.26.26 0 0 1-.07-.029 2.269 2.269 0 0 1 1.659-4.224c.017 0 .04.009.056.016a2.273 2.273 0 0 1-1.235 4.349 2.384 2.384 0 0 1-.41-.115m59.38 9.05a.299.299 0 0 0-.037-.05 2.274 2.274 0 1 1 3.503-2.899c.015.016.028.037.047.055a2.275 2.275 0 1 1-3.512 2.892M13.796 43.132a.29.29 0 0 0-.058-.035 2.273 2.273 0 0 1 2.445-3.83l.05.031a2.271 2.271 0 0 1-1.636 4.143 2.244 2.244 0 0 1-.801-.315m55.852 3.24a.422.422 0 0 0-.055-.04 2.271 2.271 0 1 1 2.422-3.842l.055.035a2.27 2.27 0 0 1-1.63 4.151 2.232 2.232 0 0 1-.794-.304M2.188 32.733l-.042-.052a2.27 2.27 0 1 1 3.508-2.866c.013.017.029.028.039.048a2.269 2.269 0 0 1-2.175 3.672 2.25 2.25 0 0 1-1.339-.795m61.21 10.478-.061-.02a2.273 2.273 0 0 1 1.619-4.248c.02.01.043.017.065.022a2.274 2.274 0 0 1-1.623 4.247m-8.73-4.204a2.27 2.27 0 0 1 2.506-2.005h.002l.073.01a2.271 2.271 0 0 1-.52 4.513h-.056c-.055 0-.111-.016-.168-.026a2.276 2.276 0 0 1-1.84-2.486M11.39 71.568a2.273 2.273 0 0 1 1.856-2.626c.02.003.04.003.061 0a2.27 2.27 0 0 1 .773 4.475 2.319 2.319 0 0 1-.847.012 2.28 2.28 0 0 1-1.844-1.857m14.323-4.049a2.27 2.27 0 0 1 .936-3.07l.006-.004a2.273 2.273 0 1 1 2.192 3.982c-.02.008-.043.024-.06.032a2.28 2.28 0 0 1-3.073-.94m6.466-3.73a2.279 2.279 0 0 1 .378-3.238 2.27 2.27 0 1 1 2.87 3.517.252.252 0 0 1-.05.048 2.282 2.282 0 0 1-3.197-.33m5.59-4.955a2.273 2.273 0 0 1-.477-3.176c.014-.02.03-.035.04-.05a2.27 2.27 0 1 1 3.655 2.697l-.041.053a2.286 2.286 0 0 1-2.222.889 2.361 2.361 0 0 1-.955-.413m7.617-28.005a2.267 2.267 0 0 1-.515-3.165l.003-.004c.013-.019.026-.043.04-.058a2.273 2.273 0 1 1 3.638 2.72 2.26 2.26 0 0 1-2.237.9 2.161 2.161 0 0 1-.93-.393m4.699-5.798a2.267 2.267 0 0 1 .301-3.19 2.272 2.272 0 1 1 2.9 3.493c-.965.8-2.397.667-3.198-.298m5.943-4.512a2.27 2.27 0 0 1 .92-3.076l.003-.001c.02-.01.04-.023.057-.038a2.273 2.273 0 1 1 2.152 4.004.506.506 0 0 0-.05.034 2.283 2.283 0 0 1-3.084-.922m13.826-5.508a2.269 2.269 0 0 1 1.833-2.633h.004l.066-.01a2.272 2.272 0 1 1 .793 4.473.145.145 0 0 0-.064.015 2.357 2.357 0 0 1-.79 0 2.257 2.257 0 0 1-1.84-1.839"></path><path fill="#3E2723" d="M100.507 68.487v-16.24h10.398v2.389h-7.73v5.151h5.353v2.39h-5.353v6.31h-2.668zm10.436-5.406c0-3.18 2.135-5.685 5.71-5.685 3.572 0 5.707 2.506 5.707 5.685 0 3.178-2.135 5.685-5.708 5.685-3.574 0-5.709-2.507-5.709-5.685zm8.887 0c0-1.972-1.136-3.434-3.178-3.434s-3.179 1.462-3.179 3.434c0 1.972 1.137 3.434 3.18 3.434 2.04 0 3.177-1.462 3.177-3.434zm5.309 1.392v-6.798h2.528v6.172c0 1.74.558 2.76 2.204 2.76 1.927 0 2.622-1.275 2.622-2.83v-6.102h2.53v10.812h-2.53V66.98c-.649 1.159-1.787 1.786-3.341 1.786-2.367 0-4.013-1.393-4.013-4.293zm13.59 4.014V57.675h2.529v1.508c.674-1.16 1.926-1.787 3.527-1.787 2.598 0 3.944 1.462 3.944 4.294v6.797h-2.53V62.85c0-2.298-.602-3.294-2.365-3.294-1.648 0-2.576 1.09-2.576 2.992v5.94h-2.528zm21.572-16.24h2.506v16.24H160.3v-1.462c-.672 1.091-2.157 1.741-3.48 1.741-3.48 0-5.313-2.507-5.313-5.685 0-3.18 2.019-5.685 5.383-5.685 1.439 0 2.738.65 3.41 1.741v-6.89zm.094 10.834c0-1.856-1.045-3.434-3.202-3.434-1.973 0-3.155 1.462-3.155 3.434 0 1.972 1.182 3.434 3.155 3.434 2.157 0 3.202-1.578 3.202-3.434zm5.151 0c0-3.18 2.019-5.685 5.383-5.685 1.439 0 2.738.65 3.41 1.741v-1.462h2.507v10.812h-2.507v-1.462c-.672 1.091-2.157 1.741-3.479 1.741-3.48 0-5.314-2.507-5.314-5.685zm8.887 0c0-1.856-1.045-3.434-3.202-3.434-1.972 0-3.155 1.462-3.155 3.434 0 1.972 1.183 3.434 3.155 3.434 2.157 0 3.202-1.578 3.202-3.434zm12.012 3.178v2.228a12.28 12.28 0 0 1-1.88.139c-1.229 0-3.504-.162-3.504-3.805v-5.034h-1.832v-2.112h1.832v-3.271h2.53v3.271h2.483v2.112h-2.483v4.455c0 1.878.58 2.11 1.578 2.11a9.56 9.56 0 0 0 1.276-.093zm2.154-12.018c0-1.043.766-1.879 1.88-1.879 1.113 0 1.878.836 1.878 1.879 0 1.045-.765 1.88-1.878 1.88-1.114 0-1.88-.835-1.88-1.88zm.627 14.246V57.675h2.506v10.812h-2.506zm4.964-5.406c0-3.18 2.135-5.685 5.71-5.685 3.572 0 5.707 2.506 5.707 5.685 0 3.178-2.135 5.685-5.708 5.685-3.574 0-5.709-2.507-5.709-5.685zm8.887 0c0-1.972-1.136-3.434-3.178-3.434s-3.18 1.462-3.18 3.434c0 1.972 1.138 3.434 3.18 3.434 2.042 0 3.178-1.462 3.178-3.434zm5.09 5.406V57.675h2.528v1.508c.674-1.16 1.926-1.787 3.527-1.787 2.598 0 3.944 1.462 3.944 4.294v6.797h-2.53V62.85c0-2.298-.603-3.294-2.365-3.294-1.648 0-2.576 1.09-2.576 2.992v5.94h-2.528z"></path><path fill="#795548" d="m99.114 42.08 1.489-.132c1.157-.1 1.454-.33 1.454-1.62v-19.18c0-1.289-.297-1.52-1.454-1.62l-1.489-.132v-1.19h11.177v1.19l-1.488.133c-1.157.099-1.455.33-1.455 1.62v9.721l10.118-10.35c.463-.463.298-.926-.694-.991l-2.414-.133v-1.19h9.854v1.19l-1.686.1c-1.488.098-2.15.43-2.91 1.19l-7.474 7.638 13.624 14.946h-7.374l-11.044-12.135v9.193c0 1.29.298 1.52 1.455 1.62l1.488.132v1.19H99.114v-1.19zm25.86-7.043c0-5.29 4.1-8.994 9.259-8.994 5.489 0 9.127 3.935 9.127 8.663 0 5.291-4.101 8.994-9.26 8.994-5.488 0-9.125-3.934-9.125-8.663zm12.863-.198c0-5.688-1.62-7.506-3.67-7.506-2.117 0-3.737 1.818-3.737 7.506 0 5.687 1.62 7.506 3.736 7.506 2.05 0 3.671-1.82 3.671-7.506zm7.147 7.373.894-.065c1.157-.1 1.322-.133 1.322-1.323V29.217h-2.216V28.16c1.49-.165 2.448-1.058 3.141-3.075 1.919-5.555 4.233-7.606 8.631-7.606h1.059v4.597h-5.093c-2.117 0-2.843.628-2.843 1.852 0 1.124.694 2.016 2.182 2.744h5.754l-1.587 2.546h-4.133v11.607c0 1.19.363 1.157 1.52 1.223l2.017.132v1.091h-10.648v-1.058zm13.508 0 .893-.065c1.157-.1 1.322-.133 1.322-1.323v-9.359l-2.512-2.38v-.199l7.406-3.108v15.046c0 1.19.166 1.223 1.324 1.323l.891.065v1.058h-9.324v-1.058zm4.629-25.494c1.653 0 3.109 1.455 3.109 3.075 0 1.654-1.456 3.108-3.109 3.108-1.62 0-3.075-1.454-3.075-3.108 0-1.62 1.456-3.075 3.075-3.075zm36.76 25.23.579.024v1.298h-10.864v-1.19l1.423-.132c1.156-.1 1.586-.33 1.124-1.488l-2.117-5.357h-8.497l-2.15 5.357c-.463 1.157-.033 1.389 1.125 1.488l1.421.132v1.19h-7.638v-1.19l1.091-.132c1.157-.133 1.653-.33 2.116-1.488l9.822-23.908h.66l9.788 23.908c.463 1.157.96 1.355 2.116 1.488zm-17.56-8.796h6.911l-3.438-8.663-3.473 8.663zm19.075 9.038.775-.043c1.158-.1 1.324-.133 1.324-1.323v-9.359l-2.513-2.38v-.199l7.407-3.108v4.233c.727-2.414 2.38-3.968 5.026-3.968 2.678 0 4.696 1.421 4.696 6.183v8.598c0 1.19.164 1.223 1.322 1.323l.893.065v1.058h-8.962v-1.058l.629-.065c1.157-.133 1.224-.133 1.224-1.323v-7.672c0-3.44-.927-4.2-2.25-4.2-1.321 0-2.578.794-2.578 4.233v7.639c0 1.19.066 1.19 1.223 1.323l.628.065v1.058h-8.844v-1.08zm20.382.022.892-.065c1.158-.1 1.323-.133 1.323-1.323v-9.359l-2.512-2.38v-.199l7.406-3.108v4.233c.727-2.414 2.38-3.968 5.026-3.968 2.679 0 4.696 1.421 4.696 6.183v8.598c0 1.19.164 1.223 1.322 1.323l.893.065v1.058h-8.962v-1.058l.629-.065c1.158-.133 1.224-.133 1.224-1.323v-7.672c0-3.44-.927-4.2-2.249-4.2s-2.58.794-2.58 4.233v7.639c0 1.19.067 1.19 1.224 1.323l.628.065v1.058h-8.96v-1.058zm20.744-3.108c0-3.141 3.67-4.166 6.283-5.125 3.44-1.257 3.803-2.381 3.803-4.067 0-1.521-.992-2.745-2.678-2.745-2.48 0-3.505 1.918-2.779 4.828-.892.198-1.62.265-2.215.265-1.785 0-2.513-.993-2.513-1.82 0-1.388 2.05-2.513 4.2-3.339 1.488-.562 3.107-1.124 5.423-1.124 2.877 0 5.224 1.223 5.125 4.695l-.265 10.416h2.58v1.059l-6.415 1.487-.661-2.943c-.893 2.249-2.58 3.01-4.497 3.01-3.141 0-5.39-2.15-5.39-4.597zm9.789-1.025.032-5.06c-.628.53-1.024.762-1.786 1.224-1.818 1.124-2.58 2.48-2.58 4.166 0 1.521.795 3.275 2.184 3.275.992 0 2.116-.993 2.15-3.605zm8.643 4.133.891-.065c1.158-.1 1.324-.133 1.324-1.323v-9.359l-2.513-2.38v-.199l7.407-3.108v4.233c.727-2.414 2.38-3.968 5.026-3.968 2.678 0 4.696 1.421 4.696 6.183v8.598c0 1.19.164 1.223 1.322 1.323l.893.065v1.058h-8.962v-1.058l.629-.065c1.157-.133 1.224-.133 1.224-1.323v-7.672c0-3.44-.927-4.2-2.25-4.2s-2.578.794-2.578 4.233v7.639c0 1.19.066 1.19 1.223 1.323l.628.065v1.058h-8.96v-1.058z"></path></svg> 